#!OML:ASF Y:\EmotionMaleHayes\Project 1\Capture day 1\Session 1\Male1.ASF
:FULLY-SPECIFIED
:DEGREES
97
root -24.5133 16.4252 16.0397 -149.641 53.8288 -174.393
lowerback 34.5828 -4.2984 -9.31551
upperback 11.7736 -6.58748 -5.52395
thorax -3.98628 -2.37333 1.16238
lowerneck -22.4572 -2.93086 -1.97711
upperneck -3.44186 -2.90935 2.97926
head 2.86136 -1.02941 1.09811
rclavicle -2.22639e-014 -6.20208e-014
rhumerus -89.1556 6.6095 -101.243
rradius 53.8826
rwrist 18.2636
rhand -47.8007 -11.0308
rfingers 7.12502
rthumb -20.4769 -39.971
lclavicle -2.22639e-014 -6.20208e-014
lhumerus 1.50868 -13.4936 58.1277
lradius 70.4305
lwrist 20.8277
lhand -32.919 -28.4377
lfingers 7.12502
lthumb -6.13598 1.45344
rfemur -76.5131 -7.73211 19.8907
rtibia 74.103
rfoot -17.5199 -8.61692
rtoes -4.26652
lfemur -17.4447 -6.88742 -19.6501
ltibia 25.4663
lfoot 327.963 1.98212
ltoes -4.92967
98
root -24.2574 16.4226 16.0089 -150.586 54.2796 -175.323
lowerback 33.2828 -4.16845 -10.4945
upperback 11.6105 -6.73132 -5.86552
thorax -3.55079 -2.49846 1.39573
lowerneck -23.6667 -3.00381 -2.65418
upperneck -2.24138 -2.83251 3.35439
head 3.02463 -0.950237 1.23197
rclavicle -2.8625e-014 -4.77083e-015
rhumerus -90.3457 6.69638 -101.619
rradius 54.3262
rwrist 21.5507
rhand -47.8877 -9.84519
rfingers 7.12502
rthumb -20.5605 -38.7764
lclavicle -2.8625e-014 -4.77083e-015
lhumerus 4.09286 -13.2405 57.0462
lradius 70.531
lwrist 20.945
lhand -33.1126 -28.125
lfingers 7.12502
lthumb -6.32294 1.76065
rfemur -77.0635 -7.22638 20.8284
rtibia 73.6236
rfoot -17.4731 -8.09437
rtoes -4.55689
lfemur -15.2134 -5.96022 -19.9887
ltibia 23.2893
lfoot 328.481 1.56192
ltoes -8.79465
99
root -24.0169 16.4251 15.9548 -151.418 54.5579 -176.147
lowerback 32.0885 -4.30165 -11.0689
upperback 11.4184 -7.07272 -6.3178
thorax -3.71802 -2.70074 1.49539
lowerneck -24.3503 -3.08959 -3.95702
upperneck -1.22798 -2.66054 4.08037
head 3.46051 -0.825587 1.6758
rclavicle 6.36111e-014 -7.31528e-014
rhumerus -91.6645 7.08909 -101.806
rradius 54.9238
rwrist 23.9718
rhand -48.0066 -8.65687
rfingers 7.12502
rthumb -20.6747 -37.5757
lclavicle 6.36111e-014 -7.31528e-014
lhumerus 5.80329 -13.091 56.3464
lradius 70.9326
lwrist 21.535
lhand -33.2528 -28.0665
lfingers 7.12502
lthumb -6.45824 1.81508
rfemur -77.5784 -7.03177 21.8514
rtibia 73.337
rfoot -17.6422 -7.50839
rtoes -4.88073
lfemur -13.0688 -5.33573 -20.2314
ltibia 21.1576
lfoot 329.596 0.960362
ltoes -12.2347
100
root -23.7417 16.434 15.8994 -152.4 54.4972 -176.9
lowerback 31.2705 -4.61478 -11.4368
upperback 11.088 -7.5878 -6.87892
thorax -3.71285 -2.9487 1.19455
lowerneck -25.2789 -3.01717 -4.49968
upperneck -0.212915 -2.46131 4.70521
head 3.91774 -0.685881 1.9756
rclavicle 4.45278e-014 0
rhumerus -92.4199 7.20048 -102.188
rradius 55.6113
rwrist 25.4363
rhand -48.0053 -8.10458
rfingers 7.12502
rthumb -20.6735 -37.0235
lclavicle 4.45278e-014 0
lhumerus 7.28972 -12.8533 55.2397
lradius 71.5835
lwrist 22.1878
lhand -33.2969 -27.8737
lfingers 7.12502
lthumb -6.50084 2.00655
rfemur -77.5281 -6.89988 22.8895
rtibia 72.8614
rfoot -18.0342 -7.18837
rtoes -5.71209
lfemur -10.4306 -4.66996 -20.1498
ltibia 18.6512
lfoot 331.14 -0.286412
ltoes -15.1913
101
root -23.4356 16.4524 15.8402 -153.84 54.6542 -177.678
lowerback 30.8287 -4.65548 -12.4258
upperback 10.772 -7.94459 -7.27903
thorax -3.7397 -3.12138 1.37017
lowerneck -25.9229 -2.98485 -5.08436
upperneck 0.494011 -2.28052 5.10454
head 4.23528 -0.570754 2.21409
rclavicle 1.27222e-014 -3.18055e-015
rhumerus -92.9275 7.29796 -102.114
rradius 56.293
rwrist 25.9856
rhand -47.9095 -7.99075
rfingers 7.12502
rthumb -20.5814 -36.9197
lclavicle 1.27222e-014 -3.18055e-015
lhumerus 8.31408 -12.5516 54.5312
lradius 72.3773
lwrist 22.9227
lhand -33.5659 -27.4211
lfingers 7.12502
lthumb -6.76054 2.45099
rfemur -76.6112 -6.56177 23.7202
rtibia 72.0496
rfoot -18.2306 -7.22199
rtoes -7.03297
lfemur -7.04823 -3.80517 -20.1199
ltibia 15.8718
lfoot 332.632 -1.48499
ltoes -17.964
102
root -23.1215 16.4828 15.7681 -155.683 54.9671 -178.613
lowerback 30.7268 -4.74601 -13.2663
upperback 10.4276 -8.36897 -8.02137
thorax -4.02213 -3.27835 1.12642
lowerneck -26.2659 -2.92403 -5.04624
upperneck 0.983744 -2.23217 5.19179
head 4.43695 -0.541913 2.2413
rclavicle 6.36111e-015 -1.08139e-013
rhumerus -93.2325 7.12218 -102.237
rradius 56.8108
rwrist 25.7196
rhand -48.0012 -7.76879
rfingers 7.12502
rthumb -20.6696 -36.6882
lclavicle 6.36111e-015 -1.08139e-013
lhumerus 8.94802 -12.6839 53.4738
lradius 73.5085
lwrist 24.1621
lhand -34.4061 -27.2337
lfingers 7.12502
lthumb -7.57158 2.61079
rfemur -75.0514 -6.34188 24.3887
rtibia 71.0079
rfoot -18.3086 -7.37864
rtoes -7.61443
lfemur -3.41903 -2.93799 -20.2421
ltibia 13.2323
lfoot 334.168 -2.68531
ltoes -15.8167
103
root -22.8844 16.4926 15.6568 -155.795 55.8117 -178.552
lowerback 29.9255 -4.96686 -12.9823
upperback 9.65362 -8.73485 -8.73529
thorax -4.69443 -3.41935 0.286138
lowerneck -26.4387 -2.89642 -5.2724
upperneck 1.68557 -2.18225 5.28916
head 4.68652 -0.525008 2.31378
rclavicle 9.54166e-015 1.22451e-013
rhumerus -93.517 7.14166 -102.094
rradius 57.3639
rwrist 24.52
rhand -48.1893 -7.9105
rfingers 7.12502
rthumb -20.8503 -36.8101
lclavicle 9.54166e-015 1.22451e-013
lhumerus 8.94256 -12.7607 53.0518
lradius 74.757
lwrist 24.9353
lhand -34.8724 -27.6166
lfingers 7.12502
lthumb -8.02163 2.2112
rfemur -74.9095 -5.86864 25.5411
rtibia 70.6895
rfoot -18.4918 -6.83802
rtoes -7.76759
lfemur -1.33034 -2.58441 -20.3806
ltibia 11.3315
lfoot 335.825 -2.86904
ltoes -20.2854
104
root -22.4868 16.556 15.5859 -159.922 55.0313 -180.603
lowerback 30.9484 -4.98645 -14.6654
upperback 9.83538 -9.24711 -9.30956
thorax -4.68995 -3.57975 0.726028
lowerneck -26.9615 -2.91836 -5.37434
upperneck 2.56739 -2.24325 5.61193
head 5.05273 -0.535226 2.42918
rclavicle 6.99722e-014 4.45278e-014
rhumerus -92.6156 6.43327 -101.501
rradius 57.2646
rwrist 23.503
rhand -48.2451 -8.50292
rfingers 7.12502
rthumb -20.9039 -37.3966
lclavicle 6.99722e-014 4.45278e-014
lhumerus 9.06797 -12.892 52.4765
lradius 76.1658
lwrist 25.458
lhand -35.2644 -28.4566
lfingers 7.12502
lthumb -8.39996 1.35639
rfemur -70.599 -6.91164 25.4992
rtibia 68.3376
rfoot -18.9836 -7.80307
rtoes -7.11841
lfemur 3.59222 -1.88265 -20.2074
ltibia 9.31428
lfoot 338.101 -6.0567
ltoes -18.5525
105
root -22.1498 16.597 15.4909 -162.506 54.5788 -182.063
lowerback 31.7297 -5.17562 -16.1716
upperback 9.12585 -10.1794 -9.29654
thorax -4.9055 -3.94655 1.58642
lowerneck -28.0378 -2.7192 -6.28154
upperneck 3.76153 -1.71183 5.81525
head 5.56842 -0.274979 2.70965
rclavicle 3.18055e-015 -3.49861e-014
rhumerus -91.1873 6.65552 -100.134
rradius 56.528
rwrist 22.4585
rhand -48.156 -9.00608
rfingers 7.12502
rthumb -20.8183 -37.9092
lclavicle 3.18055e-015 -3.49861e-014
lhumerus 7.93663 -12.0867 52.845
lradius 77.8124
lwrist 25.4586
lhand -35.9184 -30.0685
lfingers 7.12502
lthumb -9.03102 -0.281863
rfemur -67.8876 -7.80535 25.7388
rtibia 66.6426
rfoot -19.4625 -8.62533
rtoes -6.15015
lfemur 6.77902 -1.94162 -20.1594
ltibia 8.15299
lfoot 340.837 -8.30275
ltoes -14.8595
106
root -21.8319 16.624 15.3889 -164.091 54.3139 -182.996
lowerback 31.1626 -5.29347 -16.8897
upperback 8.83007 -10.516 -9.5494
thorax -4.86794 -4.10034 1.7199
lowerneck -28.1011 -2.64586 -6.57908
upperneck 4.1509 -1.53344 5.74356
head 5.69386 -0.210063 2.75644
rclavicle 4.13472e-014 4.13472e-014
rhumerus -90.2613 6.47149 -99.1142
rradius 56.7082
rwrist 20.3177
rhand -48.0709 -9.60042
rfingers 7.12502
rthumb -20.7365 -38.5125
lclavicle 4.13472e-014 4.13472e-014
lhumerus 7.3101 -12.2677 53.254
lradius 79.5023
lwrist 25.7071
lhand -36.1391 -31.9558
lfingers 7.12502
lthumb -9.24405 -2.17841
rfemur -65.8925 -8.37714 26.2157
rtibia 65.2416
rfoot -19.9762 -9.57092
rtoes -4.41563
lfemur 9.01305 -1.89682 -19.9062
ltibia 7.52244
lfoot 343.642 -9.87883
ltoes -12.8107
107
root -21.5115 16.643 15.2863 -165.361 54.4234 -183.748
lowerback 30.0313 -5.69169 -16.8298
upperback 8.71872 -10.8998 -10.5287
thorax -5.19672 -4.2668 0.921184
lowerneck -28.1618 -2.47046 -6.46365
upperneck 4.80838 -1.40999 5.88296
head 5.91202 -0.150487 2.80329
rclavicle 5.08889e-014 3.49861e-014
rhumerus -89.1524 6.02235 -98.8532
rradius 56.5233
rwrist 18.1717
rhand -48.0292 -10.6829
rfingers 7.12502
rthumb -20.6965 -39.5993
lclavicle 5.08889e-014 3.49861e-014
lhumerus 6.18304 -12.9506 53.0978
lradius 81.3035
lwrist 26.0928
lhand -36.4968 -34.5348
lfingers 7.12502
lthumb -9.58913 -4.77306
rfemur -64.0363 -8.73456 26.8525
rtibia 63.9453
rfoot -20.3247 -10.7675
rtoes -3.81932
lfemur 10.9361 -1.59256 -19.595
ltibia 7.11628
lfoot 346.63 -10.8403
ltoes -11.8569
108
root -21.1802 16.6647 15.1849 -166.79 54.7486 -184.519
lowerback 29.2078 -5.65717 -17.7425
upperback 8.31341 -11.0512 -10.8673
thorax -5.13471 -4.33016 0.981235
lowerneck -28.4991 -2.40775 -6.5691
upperneck 5.71354 -1.3206 5.77241
head 6.25042 -0.134419 2.8009
rclavicle 2.54444e-014 1.33583e-013
rhumerus -87.4319 6.107 -98.1905
rradius 56.1892
rwrist 16.1001
rhand -47.8621 -12.1696
rfingers 7.12502
rthumb -20.5359 -41.1034
lclavicle 2.54444e-014 1.33583e-013
lhumerus 4.76812 -13.113 53.7507
lradius 82.9468
lwrist 25.8669
lhand -36.5542 -37.6434
lfingers 7.12502
lthumb -9.64456 -7.88422
rfemur -61.7351 -9.13182 27.4918
rtibia 62.4811
rfoot -20.6903 -12.1225
rtoes -3.46609
lfemur 12.8968 -1.26724 -19.2858
ltibia 6.8813
lfoot 350.142 -11.5069
ltoes -11.2592
109
root -20.887 16.6695 15.0694 -167.71 55.8743 -184.943
lowerback 27.95 -5.48124 -18.4059
upperback 7.85703 -10.8722 -11.255
thorax -5.02006 -4.25425 0.737334
lowerneck -29.2436 -2.3198 -6.67827
upperneck 6.52912 -1.15379 5.73202
head 6.61503 -0.0624466 2.83668
rclavicle -1.65389e-013 5.40694e-014
rhumerus -85.3238 6.11471 -97.5686
rradius 55.7695
rwrist 14.207
rhand -47.6617 -13.767
rfingers 7.12502
rthumb -20.3433 -42.7215
lclavicle -1.65389e-013 5.40694e-014
lhumerus 3.33642 -13.1246 54.6393
lradius 84.3498
lwrist 25.0538
lhand -36.3468 -40.9599
lfingers 7.12502
lthumb -9.44446 -11.1915
rfemur -59.9046 -8.95659 28.2146
rtibia 61.5456
rfoot -21.2166 -13.1222
rtoes -1.57038
lfemur 14.4593 -1.23381 -19.423
ltibia 6.92342
lfoot 353.542 -11.0099
ltoes -10.6854
110
root -20.5992 16.6716 14.9431 -168.828 57.1027 -185.545
lowerback 26.9786 -5.28669 -18.8194
upperback 7.2369 -10.7051 -11.7967
thorax -5.31592 -4.13707 0.241901
lowerneck -29.6632 -2.25831 -6.68385
upperneck 7.34731 -1.08551 5.67153
head 6.94316 -0.04579 2.83514
rclavicle -3.81667e-014 1.90833e-014
rhumerus -83.4657 5.61977 -97.1591
rradius 55.3749
rwrist 12.6497
rhand -47.6719 -14.5972
rfingers 7.12502
rthumb -20.3531 -43.5507
lclavicle -3.81667e-014 1.90833e-014
lhumerus 1.64785 -13.4825 55.5785
lradius 85.594
lwrist 23.5958
lhand -36.4445 -44.2127
lfingers 7.12502
lthumb -9.53874 -14.4486
rfemur -57.9406 -8.91987 28.6616
rtibia 60.6788
rfoot -21.8485 -13.8394
rtoes 1.56525
lfemur 15.7413 -1.472 -19.8799
ltibia 7.57778
lfoot 357.229 -10.1513
ltoes -7.96827
111
root -20.2588 16.6891 14.8275 -170.752 57.1492 -186.812
lowerback 25.9823 -4.99032 -20.5126
upperback 6.96823 -10.5366 -11.5208
thorax -4.73796 -4.09558 1.23648
lowerneck -29.372 -2.23925 -7.20057
upperneck 7.45511 -0.845215 5.26436
head 6.91917 -0.00150616 2.80863
rclavicle -6.36111e-015 0
rhumerus -80.7061 6.40974 -96.2667
rradius 54.6486
rwrist 10.9633
rhand -47.1689 -15.0541
rfingers 7.12502
rthumb -19.8696 -44.0584
lclavicle -6.36111e-015 0
lhumerus 0.00448549 -13.338 57.5693
lradius 86.5077
lwrist 21.2657
lhand -36.8255 -47.5048
lfingers 7.12502
lthumb -9.90626 -17.7579
rfemur -55.0361 -10.1482 28.6933
rtibia 59.064
rfoot -22.5248 -14.6881
rtoes 5.28842
lfemur 16.7862 -1.77646 -19.9211
ltibia 9.03856
lfoot 361.777 -10.0811
ltoes -5.36224
